<?xml version="1.0" encoding="utf-8" ?>
<svg xmlns="http://www.w3.org/2000/svg" xmlns:xlink="http://www.w3.org/1999/xlink" width="1024" height="1024">
	<path fill="#052531" d="M513.538 67.2745C532.16 67.029 550.56 68.8165 569.054 70.5793L571.588 70.8364C582.017 73.0949 592.614 74.7552 603.099 76.7585C611.187 78.304 619.28 80.3366 627.42 81.5424L630.798 82.7789C647.875 87.5659 666.268 92.4227 682.336 99.8959L685.944 101.563C702.439 108.942 719.382 116.533 734.961 125.719L738.252 127.601C752.205 134.512 770.73 147.958 782.681 158.235L785.658 160.476C794.128 166.711 802.293 173.347 810.126 180.364C815.085 184.858 819.792 190.589 825.282 194.346L829.565 198.659C841.628 212.522 855.017 225.844 865.892 240.652L867.983 243.027C877.333 258.454 889.008 272.76 897.64 288.569C898.301 289.548 898.839 290.342 899.271 291.456C909.361 307.354 915.146 323.767 923.673 339.944L924.787 343.088C931.382 359.866 937.154 376.956 942.083 394.297L943.183 398.148C944.314 406.132 945.621 419.316 948.951 426.417C953.181 432.909 954.438 451.403 954.488 459.271C955.742 476.536 957.089 493.82 957.085 511.144C957.206 512.841 957.515 514.673 957.204 516.347C956.848 526.839 956.231 537.32 955.355 547.78C954.742 554.771 953.157 562.733 953.587 569.65C953.516 570.856 953.499 571.99 953.182 573.162C951.102 577.527 948.376 598.41 947.281 604.348C945.903 611.826 944.099 619.188 942.572 626.63L941.799 629.765C936.654 647.179 930.42 664.182 924.567 681.36L922.864 684.327C919.029 692.769 915.227 701.246 910.957 709.479C907.363 716.406 902.958 723.182 900.162 730.467C900.085 730.667 900.003 730.865 899.925 731.064L899.788 731.424C899.004 732.536 898.244 733.78 897.371 734.816C887.791 750.332 878.352 767.826 866.122 781.444L863.181 785.089C852.024 798.971 840.279 813.208 827.57 825.688L825.425 827.967C812.074 840.083 798.951 852.93 784.628 863.881C783.534 864.709 782.421 865.676 781.254 866.386C766.662 876.691 751.745 886.529 736.526 895.884L732.621 898.42C716.736 907.672 699.8 914.495 683.224 922.321L679.707 923.762C663.289 930.166 647.222 936.41 630.153 940.88C628.96 941.209 627.763 941.525 626.563 941.83C608.28 945.986 590.409 949.893 571.858 952.765L568.378 953.324C550.917 955.667 530.571 956.625 512.959 956.503L509.464 956.472C491.214 956.713 473.144 954.5 454.97 953.459C453.618 953.538 452.387 953.363 451.056 953.168C444.659 951.03 437.04 950.308 430.381 949.062C419.546 947.035 408.883 944.727 398.173 942.124L394.63 941.318C388.154 939.002 381.269 937.441 374.712 935.269C363.899 931.687 353.232 927.521 342.254 924.467L338.883 922.872C322.788 915.381 306.866 907.522 291.131 899.303L287.859 897.514C272.584 887.657 257.588 877.969 242.786 867.359L240.153 865.699C225.215 854.075 210.918 841.651 197.324 828.481L195.313 826.39C181.629 813.248 169.207 798.106 157.423 783.282L155.454 780.391C144.526 765.915 135.028 750.868 126.091 735.103C125.405 734.308 124.945 733.145 124.45 732.211C116.11 716.467 108.741 700.152 100.191 684.538C99.6555 683.685 99.5066 682.72 99.2604 681.751C92.8338 664.514 88.1346 646.664 81.5571 629.493L80.8059 626.722C79.7178 618.224 77.168 609.644 75.4974 601.206C73.6604 591.927 72.5228 582.516 70.6842 573.259L70.409 569.502C68.3905 552.677 67.1906 535.763 66.8135 518.822C66.5004 514.794 66.3901 510.284 66.8638 506.286C67.1702 494.393 67.849 482.583 68.6079 470.711C68.7904 461.503 68.6687 454.25 71.6166 445.404C73.3265 440.306 73.9237 434.062 74.9229 428.742C76.7976 418.284 78.9385 407.875 81.3436 397.525L82.311 394.86C85.777 386.309 87.9046 377.192 90.7288 368.413C93.3998 360.11 96.8462 351.928 98.8732 343.442C99.6929 337.148 102.618 331.153 106.32 326.059C111.836 314.696 117.469 303.389 123.218 292.141L125.13 288.848C134.088 273.146 144.508 257.916 155.4 243.5C156.11 242.337 156.975 241.371 157.871 240.354C168.708 226.572 180.184 213.305 192.261 200.597L195.44 197.269C206.144 184.72 225.401 169.921 238.598 159.456L241.849 157.267C256.7 146.349 272.601 136.907 287.895 126.639C288.948 125.862 290.077 125.27 291.218 124.635C297.368 122.007 303.359 118.636 309.418 115.749C319.304 111.04 329.605 106.694 338.981 101.031C340.084 100.897 341.245 100.439 342.317 100.127C351.128 96.9735 359.87 93.6551 368.753 90.6994C376.768 88.0321 384.929 85.7413 392.825 82.732L396.509 82.3246C414.469 77.1713 432.612 74.3773 450.889 70.7365L454.421 70.5961C461.39 70.307 468.47 69.3631 475.441 68.8133C486.923 67.8183 498.441 67.2927 509.966 67.2378L513.538 67.2745Z"/>
	<path fill="#00DB8B" d="M207.514 814.096L209.508 815.757C218.11 824.907 227.702 833.211 237.335 841.25C241.428 844.665 245.938 847.886 249.811 851.525C250.902 852.02 251.117 852.046 251.738 853.048C248.644 857.749 245.659 862.52 242.786 867.359L240.153 865.699C225.215 854.075 210.918 841.651 197.324 828.481L195.313 826.39C198.64 821.597 202.66 817.338 207.514 814.096Z"/>
	<path d="M207.514 814.096L209.508 815.757L197.324 828.481L195.313 826.39C198.64 821.597 202.66 817.338 207.514 814.096Z"/>
	<path d="M249.811 851.525C250.902 852.02 251.117 852.046 251.738 853.048C248.644 857.749 245.659 862.52 242.786 867.359L240.153 865.699C243.175 860.818 246.456 856.179 249.811 851.525Z"/>
	<path fill="#00DB8B" d="M567.442 936.773C568.775 936.645 569.512 936.266 570.63 937.091L571.133 939.697C571.837 944.009 571.506 948.422 571.858 952.765L568.378 953.324C550.917 955.667 530.571 956.625 512.959 956.503L509.464 956.472C508.894 952.636 508.946 948.65 509.165 944.788C509.468 943.362 509.563 941.944 509.922 940.51C511.222 939.822 511.549 940.135 512.942 940.468C515.224 939.19 526.015 939.896 529.338 939.747C542.051 939.174 554.763 937.884 567.442 936.773Z"/>
	<path fill="#002219" d="M567.442 936.773C568.775 936.645 569.512 936.266 570.63 937.091L571.133 939.697C571.837 944.009 571.506 948.422 571.858 952.765L568.378 953.324C567.458 948.063 567.505 942.109 567.442 936.773Z"/>
	<path fill="#002219" d="M509.165 944.788C509.468 943.362 509.563 941.944 509.922 940.51C511.222 939.822 511.549 940.135 512.942 940.468L512.959 956.503L509.464 956.472C508.894 952.636 508.946 948.65 509.165 944.788Z"/>
	<path fill="#00DB8B" d="M71.6166 445.404C71.5181 447.574 71.5391 449.828 71.1263 451.963C76.438 452.157 81.7811 452.416 86.9806 453.601C86.6707 454.903 86.2934 455.961 85.1551 456.779C86.0205 457.59 86.0401 457.762 86.0764 459.012C86.2363 464.506 84.9434 470.581 84.3022 476.055C83.5454 482.515 83.1813 489.046 82.8982 495.543C82.7547 498.837 83.5639 509.304 82.6329 511.578C83.1563 512.886 83.1128 513.641 83.014 515.009C80.0314 514.961 69.0742 514.091 67.0104 515.188L66.8135 518.822C66.5004 514.794 66.3901 510.284 66.8638 506.286C67.1702 494.393 67.849 482.583 68.6079 470.711C68.7904 461.503 68.6687 454.25 71.6166 445.404Z"/>
	<path fill="#002219" d="M71.6166 445.404C71.5181 447.574 71.5391 449.828 71.1263 451.963C76.438 452.157 81.7811 452.416 86.9806 453.601C86.6707 454.903 86.2934 455.961 85.1551 456.779C80.3489 456.189 75.5131 455.69 70.7219 454.998C69.9505 460.206 69.4682 465.535 68.6079 470.711C68.7904 461.503 68.6687 454.25 71.6166 445.404Z"/>
	<path fill="#002219" d="M66.8135 518.822C66.5004 514.794 66.3901 510.284 66.8638 506.286C66.844 507.854 66.557 509.969 67.3178 511.35C72.4105 511.763 77.5302 511.472 82.6329 511.578C83.1563 512.886 83.1128 513.641 83.014 515.009C80.0314 514.961 69.0742 514.091 67.0104 515.188L66.8135 518.822Z"/>
	<path fill="#00DB8B" d="M170.459 770.775L171.876 772.657C181.545 786.794 194.729 802.765 207.514 814.096C202.66 817.338 198.64 821.597 195.313 826.39C181.629 813.248 169.207 798.106 157.423 783.282L155.454 780.391L170.459 770.775Z"/>
	<path fill="#002219" d="M170.459 770.775L171.876 772.657C166.853 775.892 162.176 779.668 157.423 783.282L155.454 780.391L170.459 770.775Z"/>
	<path fill="#00DB8B" d="M338.981 101.031C340.084 100.897 341.245 100.439 342.317 100.127C343.699 105.258 346.52 109.973 348.346 114.964C347.518 116.112 346.367 116.25 345.075 116.593C336.143 121.514 326.92 125.961 317.807 130.542C311.425 133.75 304.946 137.406 298.263 139.932L295.247 141.219C292.877 136.319 290.426 131.458 287.895 126.639C288.948 125.862 290.077 125.27 291.218 124.635C297.368 122.007 303.359 118.636 309.418 115.749C319.304 111.04 329.605 106.694 338.981 101.031Z"/>
	<path fill="#002219" d="M287.895 126.639C288.948 125.862 290.077 125.27 291.218 124.635C293.75 129.647 296.1 134.75 298.263 139.932L295.247 141.219C292.877 136.319 290.426 131.458 287.895 126.639Z"/>
	<path d="M338.981 101.031C340.084 100.897 341.245 100.439 342.317 100.127C343.699 105.258 346.52 109.973 348.346 114.964C347.518 116.112 346.367 116.25 345.075 116.593C343.029 111.446 341.405 106.003 338.981 101.031Z"/>
	<path fill="#00DB8B" d="M513.538 67.2745C532.16 67.029 550.56 68.8165 569.054 70.5793L571.588 70.8364C571.265 75.6364 570.762 80.3952 570.21 85.1722L569.585 86.7792C568.417 87.1018 568.045 86.9175 566.854 86.6065C560.166 86.6932 553.416 85.5651 546.75 84.974C535.649 83.9896 524.672 83.4018 513.53 83.567C512.538 83.6246 511.822 83.539 510.86 83.2888C508.908 80.8147 510.163 74.2721 509.971 71.0357L509.927 70.366L509.966 67.2378L513.538 67.2745Z"/>
	<path fill="#002219" d="M509.966 67.2378L513.538 67.2745L513.53 83.567C512.538 83.6246 511.822 83.539 510.86 83.2888C508.908 80.8147 510.163 74.2721 509.971 71.0357L509.927 70.366L509.966 67.2378Z"/>
	<path d="M569.054 70.5793L571.588 70.8364C571.265 75.6364 570.762 80.3952 570.21 85.1722L569.585 86.7792C568.417 87.1018 568.045 86.9175 566.854 86.6065C567.217 81.2172 568.182 75.9042 569.054 70.5793Z"/>
	<path fill="#00DB8B" d="M943.183 398.148C944.314 406.132 945.621 419.316 948.951 426.417C953.181 432.909 954.438 451.403 954.488 459.271C954.164 457.982 953.943 456.966 953.089 455.902C949.123 454.077 941.814 456.402 937.537 457.184L937.063 454.344C934.601 447.053 934.263 438.869 932.86 431.322C931.019 421.414 928.441 411.607 926.017 401.826C931.633 400.171 937.421 399.141 943.183 398.148Z"/>
	<path d="M948.951 426.417C953.181 432.909 954.438 451.403 954.488 459.271C954.164 457.982 953.943 456.966 953.089 455.902C949.123 454.077 941.814 456.402 937.537 457.184L937.063 454.344C942.373 453.439 947.695 452.674 953.075 452.367C951.433 443.809 949.954 435.071 948.951 426.417Z"/>
	<path fill="#00DB8B" d="M140.51 724.865L141.44 726.294C147.321 737.269 162.422 763.069 170.459 770.775L155.454 780.391C144.526 765.915 135.028 750.868 126.091 735.103C125.405 734.308 124.945 733.145 124.45 732.211C129.833 729.834 135.137 727.27 140.51 724.865Z"/>
	<path d="M140.51 724.865L141.44 726.294C138.093 728.321 128.251 732.773 126.091 735.103C125.405 734.308 124.945 733.145 124.45 732.211C129.833 729.834 135.137 727.27 140.51 724.865Z"/>
	<path fill="#00DB8B" d="M123.218 292.141C127.918 294.759 132.594 297.581 137.48 299.835L137.941 300.736C134.573 310.399 128.795 319.251 124.276 328.413C121.42 334.204 119.361 340.412 116.29 346.087C115.857 347.566 115.541 348.404 114.41 349.534L98.8732 343.442C99.6929 337.148 102.618 331.153 106.32 326.059C111.836 314.696 117.469 303.389 123.218 292.141Z"/>
	<path fill="#002219" d="M106.32 326.059C104.738 330.693 102.852 335.179 100.957 339.69C106.015 341.999 111.099 344.1 116.29 346.087C115.857 347.566 115.541 348.404 114.41 349.534L98.8732 343.442C99.6929 337.148 102.618 331.153 106.32 326.059Z"/>
	<path fill="#00DB8B" d="M155.4 243.5C159.91 246.702 164.459 249.848 169.045 252.938C168.576 255.594 162.917 261.804 161.109 264.389C153.785 274.865 146.302 285.936 140.241 297.182C139.279 298.514 138.99 299.118 137.48 299.835C132.594 297.581 127.918 294.759 123.218 292.141L125.13 288.848C134.088 273.146 144.508 257.916 155.4 243.5Z"/>
	<path fill="#002219" d="M125.13 288.848C130.33 291.402 135.286 294.183 140.241 297.182C139.279 298.514 138.99 299.118 137.48 299.835C132.594 297.581 127.918 294.759 123.218 292.141L125.13 288.848Z"/>
	<path fill="#00DB8B" d="M70.409 569.502C75.7841 569.053 81.2121 569.026 86.6031 568.876L86.8581 571.912C88.421 581.952 90.1629 591.888 92.4374 601.794C93.8791 608.074 96.5742 615.902 97.0715 622.185C97.3439 623.292 97.6052 624.366 97.7794 625.495C92.3783 626.842 86.9846 628.258 81.5571 629.493L80.8059 626.722C79.7178 618.224 77.168 609.644 75.4974 601.206C73.6604 591.927 72.5228 582.516 70.6842 573.259L70.409 569.502Z"/>
	<path d="M97.0715 622.185C97.3439 623.292 97.6052 624.366 97.7794 625.495C92.3783 626.842 86.9846 628.258 81.5571 629.493L80.8059 626.722C85.9447 624.523 91.6469 623.458 97.0715 622.185Z"/>
	<path fill="#002219" d="M70.409 569.502C75.7841 569.053 81.2121 569.026 86.6031 568.876L86.8581 571.912C81.4968 572.344 76.0144 572.584 70.6842 573.259L70.409 569.502Z"/>
	<path fill="#00DB8B" d="M251.738 853.048C255.223 854.987 258.413 857.906 261.678 860.234C267.044 863.996 272.508 867.618 278.063 871.096C282.616 873.988 292.35 878.743 295.682 882.535C296.772 882.891 297.208 883.179 297.964 884.041C295.615 889.096 293.337 894.184 291.131 899.303L287.859 897.514C272.584 887.657 257.588 877.969 242.786 867.359C245.659 862.52 248.644 857.749 251.738 853.048Z"/>
	<path d="M295.682 882.535C296.772 882.891 297.208 883.179 297.964 884.041C295.615 889.096 293.337 894.184 291.131 899.303L287.859 897.514C290.507 892.542 293.115 887.549 295.682 882.535Z"/>
	<path fill="#00DB8B" d="M238.598 159.456C241.987 164.129 245.286 168.914 248.796 173.493C243.119 178.584 236.95 183.059 231.117 187.963C223.262 194.566 215.889 201.65 208.575 208.839C204.405 204.627 200.332 200.661 195.44 197.269C206.144 184.72 225.401 169.921 238.598 159.456Z"/>
	<path fill="#00DB8B" d="M785.658 160.476C794.128 166.711 802.293 173.347 810.126 180.364C815.085 184.858 819.792 190.589 825.282 194.346L829.565 198.659C825.757 202.573 821.878 206.443 818.151 210.434L814.701 208.817C802.463 196.566 790.057 185.041 776.577 174.134C779.713 169.641 782.819 165.166 785.658 160.476Z"/>
	<path fill="#002219" d="M825.282 194.346L829.565 198.659C825.757 202.573 821.878 206.443 818.151 210.434L814.701 208.817C818.086 205.358 822.282 201.717 824.897 197.649C825.764 196.3 825.688 195.861 825.282 194.346Z"/>
	<path fill="#00DB8B" d="M622.763 926.126C624.058 926 625.361 925.694 626.642 925.459L630.153 940.88C628.96 941.209 627.763 941.525 626.563 941.83C608.28 945.986 590.409 949.893 571.858 952.765C571.506 948.422 571.837 944.009 571.133 939.697C571.195 938.558 571.335 937.652 571.683 936.565C573.678 935.176 577.611 934.905 580.045 934.518C586.597 933.475 593.195 932.632 599.672 931.174C606.686 929.595 615.695 926.414 622.763 926.126Z"/>
	<path fill="#002219" d="M622.763 926.126C624.058 926 625.361 925.694 626.642 925.459L630.153 940.88C628.96 941.209 627.763 941.525 626.563 941.83C625.149 936.635 623.986 931.369 622.763 926.126Z"/>
	<path fill="#00DB8B" d="M885.018 724.856C889.968 726.987 894.824 729.328 899.788 731.424C899.004 732.536 898.244 733.78 897.371 734.816C887.791 750.332 878.352 767.826 866.122 781.444C861.893 778.679 858.079 773.219 854.757 769.36C861.037 760.652 867.05 751.755 872.789 742.682C875.805 737.816 878.508 731.68 882.014 727.261L882.958 727.288L885.018 724.856Z"/>
	<path fill="#002219" d="M885.018 724.856C889.968 726.987 894.824 729.328 899.788 731.424C899.004 732.536 898.244 733.78 897.371 734.816C892.657 732.141 887.79 729.741 882.958 727.288L885.018 724.856Z"/>
	<path fill="#00DB8B" d="M116.048 675.746C116.368 676.541 116.818 677.38 116.895 678.234C121.636 688.073 125.623 698.466 130.733 708.097C133.117 712.59 139.092 720.683 140.51 724.865C135.137 727.27 129.833 729.834 124.45 732.211C116.11 716.467 108.741 700.152 100.191 684.538C99.6555 683.685 99.5066 682.72 99.2604 681.751C104.801 679.619 110.449 677.723 116.048 675.746Z"/>
	<path d="M116.048 675.746C116.368 676.541 116.818 677.38 116.895 678.234C111.393 680.3 105.524 682.109 100.191 684.538C99.6555 683.685 99.5066 682.72 99.2604 681.751C104.801 679.619 110.449 677.723 116.048 675.746Z"/>
	<path fill="#00DB8B" d="M241.849 157.267C256.7 146.349 272.601 136.907 287.895 126.639C290.426 131.458 292.877 136.319 295.247 141.219C291.519 145.503 281.053 150.607 275.712 153.935C267.243 159.212 258.893 164.787 251.693 171.737C250.725 172.429 249.914 173.055 248.796 173.493C245.286 168.914 241.987 164.129 238.598 159.456L241.849 157.267Z"/>
	<path fill="#002219" d="M238.598 159.456L241.849 157.267C245.418 161.695 249.184 166.61 251.693 171.737C250.725 172.429 249.914 173.055 248.796 173.493C245.286 168.914 241.987 164.129 238.598 159.456Z"/>
	<path fill="#00DB8B" d="M297.964 884.041C303.312 884.677 318.086 894.138 323.84 897.017C330.721 900.379 337.642 903.661 344.601 906.86C346.116 907.086 346.624 907.459 347.761 908.399C345.897 913.605 343.497 919.088 342.254 924.467L338.883 922.872C322.788 915.381 306.866 907.522 291.131 899.303C293.337 894.184 295.615 889.096 297.964 884.041Z"/>
	<path d="M344.601 906.86C346.116 907.086 346.624 907.459 347.761 908.399C345.897 913.605 343.497 919.088 342.254 924.467L338.883 922.872C340.901 917.576 342.808 912.237 344.601 906.86Z"/>
	<path fill="#00DB8B" d="M829.565 198.659C841.628 212.522 855.017 225.844 865.892 240.652L867.983 243.027C863.54 246.423 859.117 249.801 854.475 252.925L852.571 251.22C843.182 236.929 830.857 226.492 819.877 213.673C818.865 212.491 818.247 212.021 818.151 210.434C821.878 206.443 825.757 202.573 829.565 198.659Z"/>
	<path fill="#002219" d="M865.892 240.652L867.983 243.027C863.54 246.423 859.117 249.801 854.475 252.925L852.571 251.22C856.931 247.537 861.211 243.936 865.892 240.652Z"/>
	<path fill="#00DB8B" d="M192.261 200.597C196.395 201.351 202.335 208.626 205.5 211.657C193.499 224.14 182.385 236.838 171.479 250.282C170.704 251.234 170.019 252.181 169.045 252.938C164.459 249.848 159.91 246.702 155.4 243.5C156.11 242.337 156.975 241.371 157.871 240.354C168.708 226.572 180.184 213.305 192.261 200.597Z"/>
	<path fill="#002219" d="M157.871 240.354C162.454 243.598 166.991 246.908 171.479 250.282C170.704 251.234 170.019 252.181 169.045 252.938C164.459 249.848 159.91 246.702 155.4 243.5C156.11 242.337 156.975 241.371 157.871 240.354Z"/>
	<path fill="#00DB8B" d="M928.804 623.83C933.39 624.736 938.028 625.537 942.572 626.63L941.799 629.765C936.654 647.179 930.42 664.182 924.567 681.36C919.76 679.486 914.865 677.848 909.987 676.168L908.85 675.637L908.495 674.526C909.918 668.728 912.921 663.078 914.976 657.457C916.698 652.747 924.116 628.747 925.849 626.759C926.338 626.199 926.857 626.374 927.543 626.335C928.034 625.568 928.4 624.651 928.804 623.83Z"/>
	<path d="M928.804 623.83C933.39 624.736 938.028 625.537 942.572 626.63L941.799 629.765C937.075 628.947 932.122 627.751 927.543 626.335C928.034 625.568 928.4 624.651 928.804 623.83Z"/>
	<path fill="#00DB8B" d="M402.365 925.249C418.527 930.791 435.765 933.344 452.584 936.026C453.672 936.149 454.516 936.223 455.556 936.571C455.494 942.209 455.037 947.837 454.97 953.459C453.618 953.538 452.387 953.363 451.056 953.168C444.659 951.03 437.04 950.308 430.381 949.062C419.546 947.035 408.883 944.727 398.173 942.124C399.893 936.614 401.038 930.867 402.365 925.249Z"/>
	<path d="M452.584 936.026C453.672 936.149 454.516 936.223 455.556 936.571C455.494 942.209 455.037 947.837 454.97 953.459C453.618 953.538 452.387 953.363 451.056 953.168C451.002 947.336 451.503 941.758 452.584 936.026Z"/>
	<path fill="#00DB8B" d="M571.588 70.8364C582.017 73.0949 592.614 74.7552 603.099 76.7585C611.187 78.304 619.28 80.3366 627.42 81.5424L630.798 82.7789C629.175 87.8666 627.619 92.9871 625.766 97.9967C625.642 98.0658 625.532 98.17 625.394 98.2041C624.124 98.518 623.725 98.1386 622.706 97.4912L622.229 97.7591C613.989 95.2286 605.622 93.1337 597.161 91.4832C590.964 90.2476 576.124 89.4453 571.382 86.9661C570.426 86.4663 570.555 86.1334 570.21 85.1722C570.762 80.3952 571.265 75.6364 571.588 70.8364Z"/>
	<path d="M627.42 81.5424L630.798 82.7789C629.175 87.8666 627.619 92.9871 625.766 97.9967C625.642 98.0658 625.532 98.17 625.394 98.2041C624.124 98.518 623.725 98.1386 622.706 97.4912C624.129 92.1169 625.724 86.8354 627.42 81.5424Z"/>
	<path fill="#00DB8B" d="M454.421 70.5961C461.39 70.307 468.47 69.3631 475.441 68.8133C486.923 67.8183 498.441 67.2927 509.966 67.2378L509.927 70.366C509.286 74.6804 509.503 79.1501 509.514 83.5044C491.493 83.5696 473.348 84.2934 455.524 87.1138C454.202 87.1321 453.925 87.2648 452.863 86.5162C451.755 81.3324 451.397 76.0059 450.889 70.7365L454.421 70.5961Z"/>
	<path d="M450.889 70.7365L454.421 70.5961C454.855 76.0838 455.444 81.6088 455.524 87.1138C454.202 87.1321 453.925 87.2648 452.863 86.5162C451.755 81.3324 451.397 76.0059 450.889 70.7365Z"/>
	<path fill="#00DB8B" d="M82.311 394.86C87.6419 395.442 92.7917 396.726 97.9552 398.14C97.7524 399.197 97.6023 400.294 97.2869 401.323C96.0568 409.309 93.6124 417.246 92.0077 425.186C90.1023 434.614 88.9873 444.206 86.9806 453.601C81.7811 452.416 76.438 452.157 71.1263 451.963C71.5391 449.828 71.5181 447.574 71.6166 445.404C73.3265 440.306 73.9237 434.062 74.9229 428.742C76.7976 418.284 78.9385 407.875 81.3436 397.525L82.311 394.86Z"/>
	<path fill="#002219" d="M82.311 394.86C87.6419 395.442 92.7917 396.726 97.9552 398.14C97.7524 399.197 97.6023 400.294 97.2869 401.323C91.9883 399.992 86.6734 398.726 81.3436 397.525L82.311 394.86Z"/>
	<path fill="#00DB8B" d="M852.008 772.669C855.793 776.747 859.463 780.948 863.181 785.089C852.024 798.971 840.279 813.208 827.57 825.688L825.425 827.967C821.996 823.989 819.136 819.545 816.26 815.162C816.631 814.369 817.212 813.595 817.679 812.849C821.759 807.564 826.553 802.758 830.921 797.698C838.049 789.443 844.992 781.019 852.008 772.669Z"/>
	<path d="M817.679 812.849C821.788 816.817 824.176 821.207 827.57 825.688L825.425 827.967C821.996 823.989 819.136 819.545 816.26 815.162C816.631 814.369 817.212 813.595 817.679 812.849Z"/>
	<path fill="#00DB8B" d="M909.987 676.168C914.865 677.848 919.76 679.486 924.567 681.36L922.864 684.327C919.029 692.769 915.227 701.246 910.957 709.479C907.363 716.406 902.958 723.182 900.162 730.467C900.085 730.667 900.003 730.865 899.925 731.064L899.788 731.424C894.824 729.328 889.968 726.987 885.018 724.856L884.798 724.513C884.756 723.203 885.415 721.937 885.976 720.781C888.987 714.572 892.711 708.7 895.751 702.498C899.758 694.322 903.157 685.859 907.474 677.835L909.987 676.168Z"/>
	<path fill="#002219" d="M909.987 676.168C914.865 677.848 919.76 679.486 924.567 681.36L922.864 684.327C917.729 682.07 912.494 680.426 907.474 677.835L909.987 676.168Z"/>
	<path fill="#00DB8B" d="M678.209 908.447L678.072 908.118C678.708 907.031 679.642 906.568 680.738 906.015L725.485 883.888C727.623 888.826 730.206 893.611 732.621 898.42C716.736 907.672 699.8 914.495 683.224 922.321L679.707 923.762C678.158 919.099 676.743 914.392 675.464 909.647C676.5 909.415 677.281 908.943 678.209 908.447Z"/>
	<path d="M675.464 909.647C676.5 909.415 677.281 908.943 678.209 908.447C680.035 913.039 681.68 917.629 683.224 922.321L679.707 923.762C678.158 919.099 676.743 914.392 675.464 909.647Z"/>
	<path fill="#00DB8B" d="M867.983 243.027C877.333 258.454 889.008 272.76 897.64 288.569C898.301 289.548 898.839 290.342 899.271 291.456C894.642 294.015 890.053 296.504 885.035 298.236L883.331 295.9C877.128 289.041 872.561 279.006 867.288 271.174C864.879 267.596 855.226 255.711 854.475 252.925C859.117 249.801 863.54 246.423 867.983 243.027Z"/>
	<path fill="#002219" d="M883.331 295.9C888.012 293.246 892.721 290.759 897.64 288.569C898.301 289.548 898.839 290.342 899.271 291.456C894.642 294.015 890.053 296.504 885.035 298.236L883.331 295.9Z"/>
	<path fill="#00DB8B" d="M630.798 82.7789C647.875 87.5659 666.268 92.4227 682.336 99.8959L676.198 115.708C666.747 111.966 657.171 108.548 647.487 105.46C641.338 103.549 634.915 102.042 628.887 99.8082C627.645 99.3479 626.641 99.0378 625.766 97.9967C627.619 92.9871 629.175 87.8666 630.798 82.7789Z"/>
	<path fill="#00DB8B" d="M97.7794 625.495C101.03 632.262 102.76 640.05 105.114 647.193C108.324 656.872 111.972 666.399 116.048 675.746C110.449 677.723 104.801 679.619 99.2604 681.751C92.8338 664.514 88.1346 646.664 81.5571 629.493C86.9846 628.258 92.3783 626.842 97.7794 625.495Z"/>
	<path fill="#00DB8B" d="M885.035 298.236C890.053 296.504 894.642 294.015 899.271 291.456C909.361 307.354 915.146 323.767 923.673 339.944L907.917 346.064C904.601 339.273 885.522 303.009 885.035 298.236Z"/>
	<path fill="#00DB8B" d="M347.761 908.399C354.965 909.13 364.291 914.127 371.295 916.573C380.149 919.664 389.005 922.16 398.141 924.273C397.1 929.947 396.301 935.793 394.63 941.318C388.154 939.002 381.269 937.441 374.712 935.269C363.899 931.687 353.232 927.521 342.254 924.467C343.497 919.088 345.897 913.605 347.761 908.399Z"/>
	<path fill="#00DB8B" d="M937.537 457.184C941.814 456.402 949.123 454.077 953.089 455.902C953.943 456.966 954.164 457.982 954.488 459.271C955.742 476.536 957.089 493.82 957.085 511.144C951.759 510.883 946.337 511.041 940.999 511.022C940.933 499.533 939.922 488.138 938.92 476.704C938.353 470.246 937.523 463.669 937.537 457.184Z"/>
	<path fill="#00DB8B" d="M392.825 82.732L396.509 82.3246C398.038 87.5679 399.477 92.8592 401.113 98.0688C399.83 98.4537 398.543 98.9424 397.195 98.984C384.863 102.129 372.715 105.959 360.809 110.456C358.095 111.5 350.899 115.443 348.404 115.015L348.346 114.964C346.52 109.973 343.699 105.258 342.317 100.127C351.128 96.9735 359.87 93.6551 368.753 90.6994C376.768 88.0321 384.929 85.7413 392.825 82.732Z"/>
	<path fill="#002219" d="M392.825 82.732L396.509 82.3246C398.038 87.5679 399.477 92.8592 401.113 98.0688C399.83 98.4537 398.543 98.9424 397.195 98.984C395.628 93.6007 394.26 88.1522 392.825 82.732Z"/>
	<path fill="#00DB8B" d="M685.944 101.563C702.439 108.942 719.382 116.533 734.961 125.719C732.181 130.533 729.834 135.721 727.344 140.698C711.802 132.288 695.947 124.834 679.946 117.349C681.598 111.982 683.864 106.776 685.944 101.563Z"/>
	<path fill="#00DB8B" d="M939.409 568.299C944.145 568.638 948.873 569.088 953.587 569.65C953.516 570.856 953.499 571.99 953.182 573.162C951.102 577.527 948.376 598.41 947.281 604.348C945.903 611.826 944.099 619.188 942.572 626.63C938.028 625.537 933.39 624.736 928.804 623.83C927.635 623.511 927.386 623.537 926.62 622.626C927.41 615.897 929.819 609.188 931.39 602.59C933.927 592.139 935.831 581.545 937.092 570.865C937.869 569.496 937.953 568.987 939.409 568.299Z"/>
	<path d="M939.409 568.299C944.145 568.638 948.873 569.088 953.587 569.65C953.516 570.856 953.499 571.99 953.182 573.162C947.801 572.521 942.437 571.756 937.092 570.865C937.869 569.496 937.953 568.987 939.409 568.299Z"/>
	<path fill="#00DB8B" d="M908.853 349.411L924.787 343.088C931.382 359.866 937.154 376.956 942.083 394.297C936.456 395.569 930.808 396.741 925.14 397.811C922.633 391.533 921.266 384.684 919.245 378.217C916.195 368.456 912.535 358.944 908.853 349.411Z"/>
	<path fill="#00DB8B" d="M738.252 127.601C752.205 134.512 770.73 147.958 782.681 158.235C779.342 162.676 776.296 167.423 773.14 172.001C759.428 162.043 745.833 151.985 731.231 143.35L738.252 127.601Z"/>
	<path fill="#00DB8B" d="M396.509 82.3246C414.469 77.1713 432.612 74.3773 450.889 70.7365C451.397 76.0059 451.755 81.3324 452.863 86.5162C451.92 87.6298 450.456 87.834 449.093 88.1552C444.164 89.3171 439.019 89.8952 434.025 90.7633C423.022 92.6759 411.795 94.7708 401.113 98.0688C399.477 92.8592 398.038 87.5679 396.509 82.3246Z"/>
	<path fill="#00DB8B" d="M455.556 936.571C465.266 936.311 475.639 938.519 485.387 939.209C492.083 939.683 502.602 939.247 508.517 940.194C509.352 941.482 509.13 943.297 509.165 944.788C508.946 948.65 508.894 952.636 509.464 956.472C491.214 956.713 473.144 954.5 454.97 953.459C455.037 947.837 455.494 942.209 455.556 936.571Z"/>
	<path fill="#00DB8B" d="M66.8135 518.822L67.0104 515.188C69.0742 514.091 80.0314 514.961 83.014 515.009C83.0128 532.997 84.9084 550.983 86.6031 568.876C81.2121 569.026 75.7841 569.053 70.409 569.502C68.3905 552.677 67.1906 535.763 66.8135 518.822Z"/>
	<path fill="#00DB8B" d="M775.842 850.298C780.938 845.76 814.885 815.664 816.26 815.162C819.136 819.545 821.996 823.989 825.425 827.967C812.074 840.083 798.951 852.93 784.628 863.881C781.317 861.035 778.232 854.22 775.842 850.298Z"/>
	<path fill="#00DB8B" d="M940.993 514.515C945.438 514.569 952.937 512.973 956.871 514.627L957.204 516.347C956.848 526.839 956.231 537.32 955.355 547.78C954.742 554.771 953.157 562.733 953.587 569.65C948.873 569.088 944.145 568.638 939.409 568.299C939.105 568.197 938.766 568.166 938.497 567.991C936.935 566.975 938.659 557.724 938.871 555.801C940.377 542.093 940.647 528.289 940.993 514.515Z"/>
	<path fill="#00DB8B" d="M98.8732 343.442L114.41 349.534C114.376 351.106 113.93 352.465 113.448 353.948C111.337 360.449 108.585 366.757 106.373 373.235C104.193 379.617 100.673 393.348 97.9552 398.14C92.7917 396.726 87.6419 395.442 82.311 394.86C85.777 386.309 87.9046 377.192 90.7288 368.413C93.3998 360.11 96.8462 351.928 98.8732 343.442Z"/>
	<path fill="#00DB8B" d="M626.642 925.459C629.142 923.057 651.261 917.39 656.623 915.461C661.524 913.698 666.197 911.162 671.153 909.606C672.884 909.063 673.831 908.792 675.464 909.647C676.743 914.392 678.158 919.099 679.707 923.762C663.289 930.166 647.222 936.41 630.153 940.88L626.642 925.459Z"/>
	<path fill="#00DB8B" d="M729.392 882.066C744.193 872.794 758.598 862.906 772.57 852.426C775.382 857.13 778.277 861.784 781.254 866.386C766.662 876.691 751.745 886.529 736.526 895.884C734.368 894.381 730.816 885.1 729.392 882.066Z"/>
	<path fill="#00DB8B" d="M503.475 94.2746C733.832 89.7046 924.296 272.708 928.928 503.065C933.56 733.421 750.607 923.934 520.252 928.628C289.809 933.324 99.2082 750.286 94.5745 519.842C89.9407 289.398 273.029 98.8463 503.475 94.2746Z"/>
	<path fill="#052531" d="M494.596 120.216C710.884 110.823 893.81 278.596 903.108 494.888C912.407 711.181 744.553 894.033 528.257 903.237C312.095 912.434 129.38 744.708 120.088 528.549C110.795 312.391 278.442 129.603 494.596 120.216Z"/>
	<path fill="#00DB8B" d="M500.22 133.209C505.91 132.619 512.007 132.865 517.733 132.928C555.889 133.342 595.961 140.602 631.969 153.198C728.178 187.508 807.042 258.266 851.545 350.206C894.43 440.367 900.187 543.766 867.576 638.131C838.534 718.25 783.903 786.567 712.133 832.518C697.372 841.879 681.594 849.563 665.85 857.101C656.236 847.342 646.732 837.349 638.398 826.456C616.392 797.695 602.111 762.699 593.224 727.8C587.191 704.111 579.346 668.724 592.642 646.699C598.079 637.889 606.805 631.61 616.886 629.254C643.103 623.109 664.079 647.425 682.723 662.655C692.113 670.209 701.965 677.173 712.22 683.504C721.95 690.315 739.706 697.719 750.892 703.138C747.635 700 744.625 696.622 741.631 693.235C718.848 667.462 680.597 607.588 683.006 572.242C683.515 564.774 686.043 556.827 691.96 551.882C697.053 547.625 703.611 546.607 710.037 547.105C730.658 548.703 749.118 561.957 762.209 577.223C780.965 599.094 787.047 624.827 784.928 653.058C789.696 649.264 794.194 645.382 798.162 640.738C818.908 616.457 826.023 580.717 823.504 549.504C821.239 521.421 808.747 497.023 789.428 476.836C783.434 470.574 775.952 464.534 771.08 457.408C767.894 452.747 765.922 440.062 763.634 433.656C758.163 418.34 750.109 403.682 740.638 390.486C720.667 362.657 693.661 340.336 666.897 319.351C644.595 301.866 622.007 284.748 599.141 268.007C578.9 253.227 558.364 239.046 539.241 222.794C544.153 232.265 547.905 242.241 551.826 252.147C542.286 245.655 532.958 239.125 522.989 233.273C488.055 212.766 450.072 198.471 411.832 185.469C396.066 180.108 379.939 175.907 364.34 170.057C370.501 176.114 375.752 183.093 380.469 190.307C369.043 182.979 355.419 178.086 342.758 173.369C350.823 169.057 359.407 165.542 367.835 162.012C410.461 144.161 454.206 135.781 500.22 133.209Z"/>
	<path fill="#00DB8B" d="M328.825 180.943C334.764 182.073 343.115 187.169 348.856 190.004C374.875 202.852 398.82 218.291 420.851 237.22C427.937 243.309 434.025 250.61 441.231 256.488L441.688 256.853C433.881 246.442 427.358 234.795 420.461 223.761C414.76 214.641 408.495 205.87 403.344 196.417C421.011 201.415 438.117 208.768 455.089 215.714C497.908 233.238 538.16 254.213 569.338 289.258C574.687 295.27 579.274 302.079 584.296 308.384C579.165 294.135 574.917 279.615 570.604 265.103C584.912 275.723 599.706 285.757 614.185 296.148C631.912 308.86 649.335 321.99 666.438 335.529C687.259 351.983 708.016 369.164 724.396 390.214C736.365 405.62 745.825 422.819 752.428 441.176C745.806 433.719 738.756 427.445 730.216 422.274C738.278 430.606 745.26 439.919 750.996 449.995C746.204 449.937 741.489 449.961 736.788 451.01C712.415 456.452 692.399 480.176 671.709 493.441C659.406 501.328 645.008 506.964 630.834 510.386C604.934 516.638 559.453 518.439 536.579 504.514C562.601 510.978 583.069 510.615 608.638 502.158C573.203 501.911 540.318 490.887 506.945 480.125C512.432 479.859 518.008 480.355 523.501 480.468C531.238 480.656 538.979 480.275 546.66 479.328C538.471 476.839 531.257 473.587 524.036 468.94C510.105 459.975 498.156 448.037 486.257 436.622C475.279 426.09 464.395 415.617 454.118 404.385C440.24 425.023 428.926 447.155 426.53 472.333C425.678 481.292 425.949 490.363 425.961 499.351L426.051 541.769C449.099 517.667 470.66 503.571 503.166 495.442C499.439 497.762 495.215 499.551 491.287 501.519C484.49 504.924 477.861 508.533 471.574 512.825C448.474 528.597 431.67 550.093 426.465 577.986C423.567 593.516 423.732 626.927 428.817 641.795C430.755 647.461 434.026 652.221 437.4 657.101C437.545 648.004 439.97 639.08 443.691 630.819C455.966 603.56 483.175 578.288 511.147 567.567C506.51 570.83 502.018 574.294 497.684 577.951C473.972 598.342 456.733 626.275 454.655 658.011C454.206 664.859 454.818 672.385 458.053 678.56C462.784 687.589 474.563 697.508 481.811 705.074C490.39 713.923 498.748 722.983 506.878 732.246C507.019 707.607 513.994 683.491 527.028 662.582C530.815 656.471 551.059 629.833 557.941 628.215L557.005 629.275L558.22 629.514L557.253 629.064C554.084 632.754 551.089 636.371 548.548 640.526C531.628 668.2 528.143 700.938 530.244 732.632C530.79 740.873 531.331 749.394 533.293 757.433C556.668 781.528 580.372 805.302 604.399 828.748C616.839 841.036 630.203 852.692 641.389 866.158C636.778 868.286 632.019 870.122 627.316 872.038C619.322 864.622 611.889 856.722 604.204 848.998C588.241 832.986 572.373 816.879 556.6 800.679L449.616 692.035C436.507 678.723 422.072 665.646 410.433 651.038C409.256 616.721 409.99 582.212 409.973 547.87C409.53 502.899 409.41 457.925 409.613 412.952L296.43 299.479L261.549 264.863C255.63 258.963 248.829 253.125 243.824 246.444C253.031 236.71 262.579 227.338 272.972 218.865C291.611 231.832 307.313 249.772 323.607 265.475L457.765 397.103C470.244 409.296 482.507 421.698 495.086 433.79C502.632 441.044 510.24 448.728 518.731 454.863C527.793 461.412 538.685 464.651 548.674 469.508C538.523 461.281 528.342 453.116 518.629 444.366C494.725 422.829 472.208 399.516 449.242 376.971L363.223 292.363C335.847 265.399 308.574 238.445 280.231 212.491L290.653 204.498C315.744 226.795 339.204 250.901 363.077 274.484L465.547 375.45C488.612 398.171 511.271 420.939 535.776 442.143C535.515 441.732 535.262 441.315 534.998 440.905C530.929 434.607 528.857 427.045 524.109 421.205C516.602 411.971 505.699 403.074 497.041 394.66L443.318 341.878C407.386 305.949 371.177 270.299 334.694 234.932C322.518 223.1 310.732 210.764 298.23 199.288C301.864 196.394 305.931 193.904 309.779 191.295C315.426 197.743 321.894 203.498 328.045 209.453L355.77 236.612C392.36 272.593 428.752 308.775 464.944 345.156C475.328 355.487 485.769 365.762 496.265 375.979C503.461 382.929 510.989 389.593 517.78 396.943C521.597 401.072 524.957 405.515 528.576 409.805C527.778 404.61 527.22 399.381 526.904 394.135C457.751 324.716 388.056 255.84 317.824 187.513C321.412 185.154 325.067 183.019 328.825 180.943Z"/>
	<path fill="#052531" d="M592.165 407.21C633.429 406.102 647.038 430.571 679.842 445.696C689.239 450.029 698.841 451.773 708.934 453.648C705.372 453.784 701.759 453.834 698.264 454.585C683.96 457.658 670.757 468.335 658.317 475.682C652.15 479.306 645.763 482.811 638.942 485.045C625.519 489.441 611.348 487.726 598.861 481.32C573.794 468.461 561.739 443.145 553.561 417.527C565.153 410.301 578.767 408.116 592.165 407.21Z"/>
	<path fill="#00DB8B" d="M590.626 417.194C596.312 416.364 602.811 416.816 608.484 417.711C621.389 419.748 644.568 430.857 652.278 441.842C655.851 446.933 656.199 453.816 655.015 459.747C653.639 466.692 649.509 472.784 643.566 476.632C639.213 479.407 634.095 480.414 629.057 479.161C622.169 477.449 616.335 472.043 612.871 465.976C609.214 459.569 608.015 452.004 610.165 444.866C612.44 437.312 617.505 432.359 624.192 428.607C628.556 430.34 632.55 432.634 636.46 435.21C634.551 435.943 632.676 436.785 630.978 437.94C627.476 440.322 624.864 444.088 624.137 448.283C623.414 452.63 624.483 457.085 627.1 460.631C629.623 464.115 633.452 466.623 637.738 467.234C642.133 467.861 646.282 466.36 649.806 463.803C650.406 462.983 651.017 462.148 651.509 461.258C653.538 457.59 653.845 452.937 652.476 449.004C649.345 440.009 638.847 433.78 630.781 429.761C611.805 420.308 593.312 419.284 573.302 426.041C577.083 442.445 582.677 458.129 593.809 471.079C596.645 474.379 600.224 476.976 603.089 480.228L603.718 480.952C601.625 479.864 599.546 478.685 597.597 477.351C579.858 465.211 572.089 443.286 568.228 423.09C575.611 419.88 582.634 418.131 590.626 417.194Z"/>
	<path fill="#00DB8B" d="M239.065 250.694L351.669 362.383L381.853 392.568C389.081 399.813 396.605 406.915 403.019 414.905L403.022 654.381C409.819 661.879 417.624 668.834 423.593 677.022C423.752 694.27 424.069 711.544 423.632 728.789C436.355 743.689 450.584 755.622 461.459 772.251C460.951 766.986 460.971 761.727 461.063 756.442C451.022 746.48 439.012 736.325 430.995 724.612L430.991 684.26L575.031 830.82C589.667 845.426 603.71 860.461 618.835 874.59C609.288 877.197 599.911 879.764 590.119 881.297C572.36 864.819 554.868 848.056 537.651 831.013C539.683 825.059 540.639 819.657 537.676 813.748C535.101 808.611 530.187 804.905 524.729 803.285C519.179 801.639 512.938 802.287 507.927 805.233C503.625 807.762 500.79 811.711 499.617 816.549C498.197 822.402 498.777 829.603 502.101 834.718C505.176 839.451 510.035 842.881 515.623 843.833C521.618 844.854 526.753 843.168 531.563 839.621C532.119 839.21 532.652 838.785 533.187 838.347C548.775 853.873 565.68 867.984 580.987 883.796C563.846 886.152 546.329 889.097 528.984 889.006C517.11 880.984 505.066 873.125 494.288 863.638C496.225 857.077 497.05 851.081 493.625 844.753C491.015 839.927 486.673 836.764 481.436 835.292C476.17 833.813 470.752 834.416 465.981 837.128C460.847 840.047 457.282 845.172 455.882 850.864C454.559 856.022 455.357 861.496 458.097 866.062C461.091 870.991 466.429 874.403 472.007 875.659C477.209 876.829 482.338 875.43 486.713 872.532C487.801 871.812 488.816 871.052 489.798 870.196C498.135 877.148 506.614 883.476 515.65 889.488C478.449 889.832 441.406 884.605 405.752 873.981C420.016 857.186 437.188 841.091 453.409 826.142C452.952 809.458 452.816 792.768 453.004 776.079C439.625 761.36 424.766 748.085 411.384 733.389C411.308 736.624 411.237 739.846 410.965 743.072C421.944 755.955 434.602 767.608 446.075 780.088C445.199 794.191 446.17 808.135 446.008 822.233C434.151 834.209 422.396 846.327 409.986 857.736C409.776 852.013 409.666 846.287 409.655 840.561C416.51 833.929 423.029 826.901 429.978 820.385C422.787 812.232 415.323 804.522 407.55 796.925C407.757 789.908 407.42 784.046 402.304 778.679C398.382 774.564 392.849 771.597 387.076 771.552C381.552 771.508 375.394 774.162 371.535 778.046C367.39 782.219 365.26 788.127 365.491 793.978C365.707 799.896 368.342 805.466 372.782 809.385C376.748 812.869 381.968 814.577 387.226 814.113C394.192 813.522 399.582 809.328 404.257 804.49C409.427 809.676 414.679 814.798 419.489 820.325C413.655 825.809 407.647 831.187 401.981 836.84C402.321 846.499 402.504 856.162 402.529 865.827L396.431 871.276C341.88 853.379 292.631 825.178 251.516 784.816C258.722 786.289 265.486 786.967 272.021 782.758C276.448 779.951 279.568 775.488 280.685 770.366C281.878 764.76 280.494 759.849 278.256 754.763L328.342 705.94C335.917 698.44 344.994 690.746 351.424 682.27C352.34 671.191 351.597 660.085 351.542 648.985L351.477 592.026L351.508 509.756C351.512 495.525 352.091 481.015 351.412 466.809L351.427 466.464C351.363 465.822 351.39 465.619 351.052 464.965C349.99 462.911 347.099 460.474 345.51 458.734C335.865 448.164 325.835 438.058 315.722 427.941L238.642 350.516C224.25 336.065 209.068 322.351 195.841 306.788C199.931 299.748 204.164 292.793 208.538 285.926C243.716 319.303 277.405 354.298 311.498 388.774C321.955 399.348 332.267 410.076 342.824 420.549C354.556 432.188 366.486 443.538 377.494 455.886L377.609 718.081C358.327 736.667 339.167 755.379 320.131 774.216C313.973 771.934 308.11 770.949 301.904 773.867C296.617 776.413 292.599 781.009 290.782 786.589C288.99 791.999 289.257 798.044 292.03 803.08C294.679 807.889 299.269 811.001 304.484 812.481C310.446 814.173 316.262 813.523 321.628 810.394C326.371 807.628 329.747 803.388 331.164 798.058C332.533 792.908 331.912 787.491 329.102 782.922C327.884 780.943 326.198 779.301 324.493 777.745C336.642 766.324 348.301 754.431 360.144 742.698C367.842 735.072 375.925 727.806 383.023 719.598L382.529 453.426C364.345 433.084 344.031 414.181 324.815 394.787L212.497 281.742C220.944 271.11 229.504 260.361 239.065 250.694Z"/>
	<path fill="#00DB8B" d="M192.159 311.934L297.18 416.74C308.912 428.398 320.513 440.188 331.979 452.107C336.804 457.045 342.672 461.89 346.803 467.366L347.133 466.923C348.05 466.889 348.827 466.849 349.72 466.615C350.392 466.439 350.746 466.4 351.427 466.464L351.412 466.809C350.707 471.657 351.066 476.88 351.079 481.782L351.178 507.482C351.192 511.682 351.523 516.17 350.738 520.304C349.526 520.66 348.308 521.124 347.032 521.115C346.185 538.358 346.987 555.999 346.987 573.303L346.962 679.308C342.814 683.688 338.177 687.601 333.886 691.844C314.253 711.253 293.687 730.2 275.434 750.908C273.046 749.274 270.664 747.465 267.961 746.385C262.837 744.339 257.519 744.183 252.412 746.403C247.482 748.537 243.639 752.595 241.778 757.635C239.092 764.857 241.107 771.086 244.124 777.716C215.583 750.319 193.821 716.431 174.56 682.152C181.041 676.275 187.385 670.249 193.588 664.078C201.051 656.542 208.244 648.601 216.479 641.893C217.972 642.939 219.541 643.921 221.216 644.649C226.626 646.988 232.754 647.032 238.197 644.771C243.303 642.601 246.795 638.647 248.828 633.543C250.969 628.166 251.112 622.52 248.621 617.224C246.235 612.151 241.447 607.99 236.151 606.197C230.578 604.341 224.487 604.865 219.313 607.646C214.508 610.178 210.627 614.373 209.044 619.624C207.06 626.205 208.828 631.974 211.846 637.841C199.121 651.256 186.021 664.312 172.563 676.992C163.527 659.617 157.931 640.526 150.978 622.259C156.931 616.297 163.19 610.6 169.347 604.848C169.283 598.78 169.226 592.721 168.916 586.659C166.371 583.356 163.388 580.344 160.564 577.277L161.085 570.815C164.499 566.952 168.309 563.435 172.012 559.853C171.989 542.508 172.128 525.163 172.429 507.82C179.32 514.57 186.661 520.924 193.832 527.377C191.99 530.027 190.276 532.557 189.337 535.691C187.412 542.112 189.872 547.395 192.922 552.901C188.708 557.233 184.027 560.985 179.971 565.504C180.113 574.268 179.989 583.035 179.599 591.792C181.564 593.847 183.848 595.696 185.977 597.586L185.948 567.931C189.29 564.217 192.863 560.774 196.458 557.311C197.053 557.661 197.656 557.996 198.268 558.316C203.957 561.264 210.642 562.677 216.861 560.574C221.968 558.846 226.089 554.924 228.413 550.096C231.035 544.702 231.324 538.467 229.211 532.854C227.35 527.837 223.668 523.632 218.665 521.597C211.5 518.684 204.321 520.825 197.636 523.82C189.818 516.099 182.016 507.048 172.532 501.371C172.563 493.799 172.666 486.226 172.839 478.656C161.43 468.15 150.443 457.125 139.477 446.159C149.4 405.387 156.358 375.882 177.526 338.839C199.393 360.012 220.294 382.364 241.861 403.867C266.957 428.889 292.84 453.327 316.995 479.26C317.503 525.589 317.507 571.921 317.004 618.249C304.42 630.978 291.697 643.569 278.84 656.022C268.242 666.471 257.902 677.204 246.849 687.178C245.316 685.915 243.737 684.554 242.017 683.553C236.922 680.59 231.384 679.569 225.64 681.242C219.976 682.891 215.634 686.711 212.857 691.87C209.891 697.376 209.329 703.626 211.325 709.553C213.072 714.74 216.58 719.058 221.525 721.482C226.662 724 232.605 724.411 237.971 722.379C243.729 720.199 249.12 715.498 251.578 709.797C254.267 703.56 252.898 697.802 250.374 691.841C262.952 680.007 274.961 667.611 287.275 655.508C298.81 644.169 310.661 633.162 322.007 621.631C321.58 573.589 321.573 525.543 321.988 477.501C317.289 471.196 311.392 465.67 305.843 460.113L277.664 432.252C245.136 399.237 212.342 366.486 179.282 334.004C182.833 326.143 187.467 319.143 192.159 311.934Z"/>
	<path d="M346.803 467.366L347.133 466.923C348.05 466.889 348.827 466.849 349.72 466.615C350.392 466.439 350.746 466.4 351.427 466.464L351.412 466.809C350.707 471.657 351.066 476.88 351.079 481.782L351.178 507.482C351.192 511.682 351.523 516.17 350.738 520.304C349.526 520.66 348.308 521.124 347.032 521.115C347.044 503.596 347.98 484.706 346.803 467.366Z"/>
	<path fill="#052531" d="M183.908 380.591C187.305 380.448 190.254 380.622 193.515 381.786C199.004 383.694 203.463 387.78 205.843 393.081C208.56 399.213 207.652 404.675 205.468 410.724C218.225 424.102 232.117 436.52 244.455 450.258C244.675 469.063 244.542 487.87 244.057 506.669C252.323 515.042 260.538 523.465 268.701 531.939C269.152 531.929 269.604 531.922 270.056 531.917C276.777 531.846 282.873 533.428 287.716 538.369C291.752 542.487 294.063 548.591 293.898 554.354C293.734 560.06 290.658 565.899 286.449 569.665C282.393 573.246 277.067 575.046 271.67 574.661C265.753 574.297 260.389 571.39 256.609 566.861C252.864 562.375 250.904 556.64 251.501 550.795C252.194 544.018 255.828 539.407 260.925 535.27L236.712 510.851C230.987 505.005 225.325 499.096 219.729 493.127L219.095 493.385C212.765 495.915 206.269 496.585 199.885 493.692C195.049 491.501 191.072 487.365 189.324 482.321C187.391 476.744 187.476 470.549 190.08 465.204C192.643 460.02 197.252 456.139 202.797 454.497C208.495 452.784 214.486 453.781 219.599 456.73C224.595 459.612 228.705 464.29 229.997 470.003C231.57 476.956 228.461 482.806 224.789 488.416C229.19 493.186 233.694 497.861 238.296 502.437C238.811 486.002 238.209 469.499 238.108 453.055C225.604 441.329 214.255 428.58 202.307 416.316C199.799 418.332 197.139 420.238 194.165 421.505C188.732 423.818 182.821 423.926 177.384 421.55C171.907 419.173 167.67 414.618 165.694 408.984C163.908 403.956 164.232 398.419 166.591 393.633C170.138 386.339 176.588 383.021 183.908 380.591Z"/>
	<path fill="#00DB8B" d="M269.703 541.756C275.96 540.132 282.354 543.865 284.016 550.112C285.678 556.359 281.983 562.776 275.746 564.475C269.456 566.188 262.973 562.455 261.297 556.155C259.621 549.855 263.393 543.395 269.703 541.756Z"/>
	<path fill="#00DB8B" d="M183.491 390.811C187.567 389.721 191.915 390.908 194.871 393.919C197.828 396.929 198.936 401.297 197.773 405.353C196.609 409.409 193.354 412.525 189.251 413.511C183.019 415.007 176.742 411.216 175.165 405.004C173.589 398.792 177.299 392.467 183.491 390.811Z"/>
	<path fill="#00DB8B" d="M206.338 463.763C210.384 462.736 214.669 463.994 217.517 467.046C220.366 470.098 221.326 474.459 220.023 478.425C218.72 482.391 215.361 485.333 211.257 486.1C205.185 487.236 199.307 483.347 197.979 477.314C196.65 471.282 200.35 465.283 206.338 463.763Z"/>
	<path fill="#00DB8B" d="M743.939 462.523C748.373 462.929 752.232 464.11 756.186 466.107C779.532 477.9 798.895 501.945 806.95 526.63C817.717 559.624 811.569 592.811 796.225 623.064C793.842 611.523 790.914 600.468 785.728 589.809C774.067 565.977 753.521 547.671 728.507 538.825C701.887 529.68 662.869 535.446 635.619 540.563C629.932 541.63 621.445 542.34 616.373 545.16C615.155 545.837 614.812 546.252 614.462 547.572C617.681 558.273 640.505 587.68 648.348 598.231C661.755 616.065 675.178 633.892 690.225 650.398C699.148 660.187 709.128 668.971 718.132 678.686C686.319 658.631 656.07 618.954 633.98 588.885C624.33 575.75 613.632 561.577 606.752 546.729C605.713 544.487 604.352 541.512 605.266 539.061C609.484 535.823 620.172 535.757 625.674 534.305C638.997 530.79 651.77 526.194 664.007 519.818C677.662 512.704 689.985 503.983 701.85 494.193C715.252 483.135 727.123 468.358 743.939 462.523Z"/>
	<path fill="#052531" d="M729.211 503.634C735.942 498.501 743.188 494.724 751.993 496.007C757.992 496.881 762.565 500.032 767.276 503.602C756.07 500.669 747.056 501.696 735.949 504.713C734.194 503.621 731.259 503.786 729.211 503.634Z"/>
	<path d="M729.211 503.634C731.259 503.786 734.194 503.621 735.949 504.713L722.495 510.275C724.702 508.032 726.97 505.843 729.211 503.634Z"/>
	<path fill="#00DB8B" d="M139.009 452.948C143.526 456.229 147.41 461.344 151.228 465.42C155.95 470.5 160.879 475.383 166.001 480.059C166.303 506.06 166.015 532.097 166.015 558.102C162.533 561.792 158.732 565.202 155.035 568.675C155.051 578.791 156.14 582.382 163.003 589.941L163.028 602.768L160.18 605.68C156.467 609.025 152.968 612.572 149.449 616.116C138.184 574.281 132.397 532.599 134.543 489.235C135.144 477.091 135.947 464.755 139.009 452.948Z"/>
	<path fill="#00DB8B" d="M516.365 810.247C523.38 808.848 530.214 813.355 531.689 820.354C533.165 827.353 528.732 834.235 521.749 835.787C517.165 836.806 512.386 835.282 509.237 831.798C506.087 828.314 505.052 823.407 506.527 818.948C508.002 814.489 511.759 811.166 516.365 810.247Z"/>
	<path fill="#00DB8B" d="M384.806 780.284C391.76 778.842 398.554 783.351 399.927 790.319C401.3 797.288 396.723 804.037 389.742 805.34C382.858 806.625 376.223 802.126 374.869 795.255C373.516 788.385 377.949 781.706 384.806 780.284Z"/>
	<path fill="#00DB8B" d="M473.036 842.766C479.901 841.392 486.591 845.811 488.021 852.664C489.452 859.518 485.089 866.244 478.247 867.731C471.325 869.235 464.504 864.81 463.056 857.876C461.609 850.941 466.09 844.157 473.036 842.766Z"/>
	<path fill="#00DB8B" d="M230.164 690.263C236.621 689.507 242.486 694.08 243.329 700.526C244.171 706.972 239.678 712.899 233.243 713.828C229.004 714.44 224.763 712.723 222.143 709.333C219.523 705.944 218.931 701.407 220.591 697.459C222.252 693.51 225.909 690.761 230.164 690.263Z"/>
	<path fill="#00DB8B" d="M308.712 781.227C314.897 780.149 320.813 784.202 322.042 790.359C323.271 796.516 319.364 802.529 313.239 803.908C309.789 804.685 306.174 803.842 303.424 801.619C300.675 799.396 299.093 796.037 299.13 792.501C299.189 786.925 303.218 782.184 308.712 781.227Z"/>
	<path fill="#00DB8B" d="M209.16 529.258C215.466 528.801 220.961 533.517 221.464 539.82C221.968 546.122 217.293 551.651 210.994 552.201C204.629 552.758 199.03 548.023 198.52 541.654C198.011 535.285 202.788 529.72 209.16 529.258Z"/>
	<path fill="#00DB8B" d="M257.426 754.282C261.419 753.185 265.693 754.319 268.616 757.252C271.54 760.184 272.66 764.462 271.55 768.451C270.441 772.441 267.272 775.525 263.254 776.526C257.144 778.049 250.946 774.375 249.35 768.283C247.754 762.192 251.354 755.951 257.426 754.282Z"/>
	<path fill="#00DB8B" d="M228.493 614.779C234.661 614.343 240.025 618.965 240.505 625.13C240.985 631.294 236.401 636.691 230.24 637.215C224.017 637.744 218.553 633.104 218.068 626.877C217.583 620.65 222.263 615.219 228.493 614.779Z"/>
</svg>
